<svg width="901" height="1475" viewBox="0 0 901 1475" fill="none" xmlns="http://www.w3.org/2000/svg">
<path d="M932.747 1474.41C935.302 1332.95 937.857 1191.49 875.399 1092.2C812.937 992.907 685.462 935.78 574.952 867.65C464.443 799.521 370.898 720.388 341.566 599.61C312.238 478.829 347.118 316.404 300.983 206.524C254.844 96.6458 127.692 39.3096 0.536388 -18.0243L620.841 -420.331C684.665 -321.923 748.489 -223.515 812.313 -125.106C876.137 -26.6982 939.961 71.7101 1003.79 170.118C1067.61 268.527 1131.43 366.935 1195.26 465.343C1259.08 563.752 1322.91 662.16 1386.73 760.568C1450.55 858.976 1514.38 957.385 1578.2 1055.79L932.747 1474.41Z" fill="#A154F2" fill-opacity="0.7"/>
<path d="M932.747 1474.41C935.302 1332.95 937.857 1191.49 875.399 1092.2C812.937 992.907 685.462 935.78 574.952 867.65C464.443 799.521 370.898 720.388 341.566 599.61C312.238 478.829 347.118 316.404 300.983 206.524C254.844 96.6458 127.692 39.3096 0.536388 -18.0243L620.841 -420.331C684.665 -321.923 748.489 -223.515 812.313 -125.106C876.137 -26.6982 939.961 71.7101 1003.79 170.118C1067.61 268.527 1131.43 366.935 1195.26 465.343C1259.08 563.752 1322.91 662.16 1386.73 760.568C1450.55 858.976 1514.38 957.385 1578.2 1055.79L932.747 1474.41Z" fill="#7418D4" fill-opacity="0.3"/>
</svg>
