<?xml version="1.0" standalone="no"?>
<!DOCTYPE svg PUBLIC "-//W3C//DTD SVG 20010904//EN"
 "http://www.w3.org/TR/2001/REC-SVG-20010904/DTD/svg10.dtd">
<svg version="1.0" xmlns="http://www.w3.org/2000/svg"
 width="932.000000pt" height="420.000000pt" viewBox="0 0 932.000000 420.000000"
 preserveAspectRatio="xMidYMid meet">

<g transform="translate(0.000000,420.000000) scale(0.100000,-0.100000)"
fill="#fff" stroke="none">
<path d="M1612 4154 c-35 -20 -131 -65 -213 -100 -384 -165 -785 -271 -1194
-316 l-200 -22 3 -915 c3 -1004 5 -1048 62 -1221 28 -89 85 -233 100 -255 4
-5 26 -46 50 -90 142 -268 415 -587 693 -809 190 -152 435 -294 664 -385 117
-46 94 -49 288 34 334 143 634 360 920 667 285 305 488 677 549 1007 14 72 16
212 16 1025 l0 942 -197 22 c-484 54 -1025 214 -1393 411 -41 22 -77 40 -80
40 -3 0 -33 -16 -68 -35z m179 -238 c69 -72 104 -101 156 -126 63 -31 75 -34
207 -40 193 -9 255 -38 277 -125 l11 -42 77 5 c119 7 300 -37 386 -94 21 -14
27 -14 57 2 68 37 222 10 242 -41 15 -39 6 -73 -26 -100 -56 -47 -60 -62 -28
-114 98 -163 98 -457 -2 -679 -15 -35 -28 -66 -28 -68 0 -2 14 -4 31 -4 22 0
40 -9 60 -31 59 -64 28 -190 -70 -286 -50 -49 -51 -50 -32 -67 51 -46 51 -123
0 -177 -26 -28 -28 -34 -15 -48 29 -32 56 -106 56 -154 0 -86 -44 -144 -118
-154 l-37 -5 3 -54 c13 -198 -108 -470 -279 -629 -107 -98 -201 -128 -255 -81
l-28 23 -26 -41 c-62 -98 -193 -202 -283 -224 -42 -11 -43 -12 -39 -47 5 -39
-24 -91 -75 -140 -31 -29 -123 -59 -156 -52 -18 4 -31 -7 -72 -66 -85 -122
-126 -122 -207 -3 -46 69 -47 69 -95 71 -81 3 -140 40 -189 117 -18 29 -25 50
-22 74 3 28 0 35 -17 40 -117 32 -236 123 -306 234 -16 25 -29 39 -29 33 0
-17 -53 -43 -88 -43 -73 0 -227 120 -310 242 -96 141 -153 310 -156 460 -1 87
-1 88 -26 88 -14 0 -40 9 -58 20 -89 54 -97 171 -19 284 20 29 20 29 0 45 -12
9 -29 31 -38 50 -21 41 -14 82 19 126 l24 31 -49 48 c-86 85 -121 195 -84 266
18 34 43 50 79 50 32 0 32 1 0 67 -45 96 -65 188 -71 333 -6 155 5 221 60 332
37 76 35 86 -20 133 -68 56 -29 132 81 155 55 11 91 7 138 -16 25 -13 32 -11
85 15 111 56 196 76 326 76 l117 0 0 32 c0 19 10 43 25 61 41 49 94 64 253 72
203 11 226 23 415 223 20 21 44 37 57 37 15 0 51 -30 111 -94z"/>
<path d="M1640 3866 c-53 -64 -128 -124 -199 -158 -58 -29 -76 -33 -198 -40
-199 -12 -238 -26 -231 -85 7 -59 129 -81 262 -47 108 28 192 80 292 180 51
50 95 101 99 113 3 11 9 21 13 20 4 0 33 -34 64 -74 125 -161 298 -255 469
-255 82 0 133 23 137 63 7 59 -32 73 -231 85 -124 7 -140 11 -203 42 -49 24
-93 57 -153 117 -46 45 -84 83 -85 82 0 0 -17 -19 -36 -43z"/>
<path d="M1589 3567 c-34 -32 -68 -50 -134 -72 -91 -31 -120 -54 -97 -77 21
-21 97 -12 152 18 34 18 61 44 84 78 26 40 52 98 43 96 -1 -1 -23 -20 -48 -43z"/>
<path d="M1729 3586 c30 -77 71 -125 135 -158 46 -24 117 -28 140 -9 15 13 15
15 0 33 -10 10 -46 27 -80 38 -82 25 -116 43 -165 87 -38 34 -39 35 -30 9z"/>
<path d="M653 3481 c-74 -20 -131 -46 -196 -89 l-39 -26 -18 22 c-25 31 -68
45 -116 37 l-41 -6 31 -32 c17 -18 36 -52 42 -76 11 -40 10 -46 -22 -98 -18
-31 -41 -81 -50 -112 -60 -199 8 -514 144 -668 l25 -28 -7 35 c-28 139 -42
382 -26 464 20 108 89 184 173 193 98 11 157 -20 198 -103 21 -43 24 -46 55
-41 52 9 81 34 99 87 38 114 -49 230 -173 230 -54 0 -147 -26 -204 -57 -67
-37 -131 -108 -159 -179 -32 -81 -38 -264 -14 -400 10 -52 15 -97 12 -100 -17
-17 -57 58 -83 155 -20 79 -29 247 -15 310 18 87 60 161 125 227 110 109 269
165 407 143 61 -10 134 -42 175 -76 12 -10 38 -39 57 -65 l36 -48 19 28 c62
89 12 209 -111 263 -73 32 -223 37 -324 10z"/>
<path d="M2425 3487 c-87 -29 -136 -68 -166 -134 -24 -53 -24 -74 1 -123 26
-52 36 -56 54 -23 39 76 146 146 248 163 222 36 478 -135 528 -352 34 -150
-15 -430 -86 -489 -16 -13 -17 -11 -11 18 16 81 29 264 25 347 -6 110 -33 180
-98 250 -79 86 -249 144 -340 117 -81 -24 -130 -90 -130 -173 0 -72 39 -121
107 -134 29 -6 34 -3 43 22 18 47 60 95 96 110 18 8 57 14 87 14 77 0 132 -38
172 -116 27 -53 30 -70 33 -174 3 -101 -14 -291 -35 -380 -6 -25 -5 -25 21 5
39 43 91 140 114 210 41 125 47 161 47 285 0 136 -10 178 -66 277 -16 29 -29
62 -29 73 0 29 27 91 52 117 l20 22 -35 6 c-44 9 -75 0 -109 -32 l-26 -25 -68
41 c-38 23 -98 51 -134 63 -82 26 -256 34 -315 15z"/>
<path d="M1662 3427 c-25 -108 -6 -172 38 -132 11 10 20 28 20 40 0 25 -29
127 -39 137 -3 4 -12 -16 -19 -45z"/>
<path d="M1616 3168 c-3 -13 -6 -40 -6 -60 0 -26 -5 -38 -14 -38 -16 0 -26 21
-26 54 0 12 -6 31 -14 42 -17 23 -21 15 -31 -58 -8 -63 -27 -62 -54 2 -29 67
-44 65 -39 -7 4 -72 -15 -78 -46 -14 -11 24 -25 42 -31 40 -5 -2 -9 -6 -8 -9
0 -3 3 -25 4 -50 5 -62 -20 -66 -56 -11 -41 66 -59 48 -31 -32 12 -33 12 -39
-1 -44 -8 -3 -20 3 -27 13 -52 73 -78 84 -57 23 14 -42 14 -79 -1 -79 -7 0
-29 17 -50 37 -46 45 -60 36 -30 -20 40 -76 21 -90 -40 -30 -21 20 -41 34 -45
30 -4 -4 3 -28 15 -52 12 -25 22 -50 22 -55 0 -18 -33 -10 -66 15 -31 24 -54
32 -54 19 0 -3 13 -25 29 -48 41 -59 24 -75 -35 -33 -24 17 -47 28 -50 24 -4
-3 8 -27 25 -53 41 -62 29 -76 -39 -44 -27 13 -53 20 -57 17 -4 -4 10 -24 30
-45 58 -60 48 -78 -23 -42 -22 11 -42 20 -45 20 -15 0 -1 -28 30 -60 47 -48
36 -65 -30 -45 -67 20 -77 4 -21 -31 43 -27 54 -43 40 -57 -3 -3 -27 1 -52 9
-56 16 -62 17 -62 5 0 -6 20 -24 45 -42 56 -40 48 -58 -25 -51 -63 6 -66 -10
-5 -37 28 -12 45 -26 45 -37 0 -14 -8 -16 -60 -10 -33 4 -60 3 -60 -2 0 -5 23
-19 50 -32 68 -32 64 -54 -8 -58 -66 -4 -65 -21 1 -40 26 -7 47 -19 47 -26 0
-14 -42 -26 -86 -26 -39 0 -27 -18 19 -30 64 -17 67 -18 67 -34 0 -10 -19 -19
-55 -27 -30 -7 -55 -15 -55 -19 0 -9 51 -20 87 -20 44 0 23 -33 -30 -48 -50
-14 -55 -32 -9 -32 81 -1 94 -30 27 -62 -61 -30 -57 -42 10 -34 50 6 55 4 55
-13 0 -13 -13 -24 -40 -35 -57 -22 -51 -38 12 -35 69 4 75 -17 18 -55 -22 -15
-38 -30 -36 -35 3 -4 27 -2 53 4 31 8 52 9 58 3 10 -10 -4 -25 -56 -59 -35
-24 -17 -33 37 -20 69 17 78 1 29 -49 -21 -22 -36 -43 -32 -47 4 -4 28 3 54
16 66 32 79 14 28 -39 -21 -22 -36 -43 -32 -47 4 -4 28 3 53 15 67 33 83 16
39 -42 -45 -60 -30 -73 28 -25 34 28 57 31 57 8 0 -6 -12 -26 -26 -44 -37 -49
-26 -60 25 -25 61 40 79 27 49 -36 -12 -24 -19 -47 -15 -51 4 -4 25 11 47 32
33 32 40 36 46 22 3 -9 -3 -35 -14 -57 -26 -53 -11 -60 35 -15 38 37 60 41 55
9 -1 -10 -5 -36 -9 -56 -7 -49 6 -48 37 2 32 52 55 54 47 3 -3 -21 -8 -46 -12
-56 -14 -34 20 -17 45 23 14 22 29 39 35 37 5 -2 11 -29 13 -60 2 -31 7 -57
11 -57 5 0 16 20 26 46 12 31 22 44 33 42 13 -2 16 -14 13 -56 -1 -28 1 -52 6
-52 5 0 19 20 31 45 29 60 48 59 57 -5 7 -50 27 -65 33 -24 7 49 13 64 27 64
10 0 16 -16 21 -50 8 -61 25 -61 40 1 14 58 35 57 54 -3 20 -64 40 -63 40 2 0
42 3 50 18 50 13 0 21 -12 28 -42 13 -60 31 -59 39 2 9 63 26 65 56 5 12 -25
27 -45 32 -45 4 0 7 24 6 52 -4 68 17 71 47 9 25 -53 39 -41 30 23 -10 62 15
69 52 16 15 -22 33 -39 40 -40 15 0 15 -1 -3 50 -25 71 7 85 44 20 12 -22 27
-40 32 -40 9 0 5 45 -7 92 -9 33 19 30 57 -8 21 -21 42 -35 46 -31 4 4 -3 28
-16 54 -32 66 -14 79 39 28 22 -21 42 -36 45 -33 3 3 -3 26 -14 50 -27 64 -12
76 45 37 51 -35 62 -26 28 25 -14 21 -23 44 -20 52 5 12 14 9 50 -16 53 -36
65 -27 31 23 -42 61 -28 79 35 47 58 -30 69 -15 24 31 -49 51 -36 71 25 39 57
-29 71 -16 27 26 -45 42 -48 69 -8 60 104 -24 118 -17 52 24 -37 23 -48 39
-34 52 3 3 27 0 55 -7 59 -16 71 -5 27 24 -18 11 -39 24 -46 29 -7 5 -10 15
-7 24 5 11 18 14 60 10 30 -2 55 0 55 5 0 5 -21 19 -46 31 -59 29 -53 48 14
44 27 -2 53 1 56 6 3 5 -17 19 -44 32 -28 13 -50 27 -50 32 0 12 46 28 80 28
46 0 45 18 -2 30 -24 6 -49 13 -56 15 -17 6 -10 29 9 32 103 13 114 25 38 43
-66 16 -62 37 11 60 30 10 53 19 50 20 -3 1 -29 7 -58 13 -29 7 -54 17 -55 22
-1 6 20 17 48 26 67 23 68 37 3 41 -70 4 -75 26 -13 56 63 30 59 45 -10 37
-47 -6 -55 -5 -55 9 0 9 19 26 45 38 60 29 57 42 -9 35 -73 -7 -80 11 -21 54
68 49 62 59 -19 35 -42 -13 -48 -13 -53 1 -4 9 1 19 11 25 29 16 71 56 65 62
-3 3 -27 -1 -54 -9 -75 -22 -85 -6 -30 49 31 31 44 56 30 56 -2 0 -25 -10 -50
-22 -33 -16 -48 -19 -56 -11 -8 8 -2 21 25 47 33 33 45 56 30 56 -3 0 -26 -9
-51 -21 -63 -29 -74 -14 -34 46 17 25 31 48 31 51 0 12 -26 1 -62 -27 -29 -24
-42 -29 -51 -20 -8 8 -3 23 21 56 18 25 32 48 32 50 0 13 -29 1 -64 -25 -21
-16 -43 -27 -47 -24 -13 8 -11 37 5 59 20 30 29 65 16 65 -6 0 -26 -16 -44
-36 -23 -25 -39 -35 -50 -31 -15 6 -14 12 9 56 14 28 25 53 25 56 0 14 -24 1
-56 -30 -55 -55 -76 -41 -49 34 18 53 18 51 0 51 -8 0 -15 -4 -15 -8 0 -4 -13
-23 -28 -42 -39 -47 -54 -34 -36 33 17 63 16 57 4 57 -5 0 -22 -18 -36 -40
-15 -22 -35 -40 -44 -40 -16 0 -17 7 -13 60 7 74 -7 78 -36 10 -13 -30 -28
-50 -37 -50 -14 0 -16 10 -12 60 5 75 -9 78 -39 9 -28 -64 -46 -60 -53 11 -3
29 -10 55 -16 57 -11 4 -34 -59 -34 -91 0 -9 -8 -16 -20 -16 -16 0 -19 8 -22
55 -2 30 -7 55 -13 56 -5 0 -16 -23 -23 -50 -14 -48 -38 -68 -46 -38 -29 102
-38 116 -50 75z m47 -204 c3 -3 -9 -29 -26 -57 -23 -37 -32 -65 -32 -97 -1
-43 -3 -45 -32 -48 -36 -4 -57 -25 -67 -66 -6 -25 -5 -28 11 -21 93 40 156
-34 133 -155 -19 -101 -76 -155 -120 -115 -11 10 -20 25 -20 33 0 21 29 52 49
52 13 1 13 2 -2 11 -11 6 -30 9 -45 6 -20 -4 -33 3 -57 29 -18 19 -37 34 -44
34 -13 0 -15 -69 -2 -89 6 -10 3 -23 -11 -42 -23 -31 -16 -59 8 -34 22 22 50
19 68 -7 21 -29 20 -40 -4 -66 -50 -53 -202 -4 -245 78 -21 41 -19 58 14 91
28 27 28 30 11 39 -29 16 -51 12 -86 -15 -33 -25 -35 -25 -66 -9 -23 12 -45
15 -80 11 -51 -6 -78 -1 -78 15 0 20 81 126 136 179 140 132 323 220 494 239
36 4 70 8 76 9 6 0 13 -2 17 -5z m237 -25 c146 -36 321 -138 421 -245 41 -44
109 -139 109 -153 0 -16 -32 -22 -77 -15 -33 5 -55 2 -85 -12 -31 -14 -42 -16
-46 -6 -5 16 -55 42 -80 42 -35 0 -43 -21 -16 -42 52 -41 23 -128 -56 -168
-79 -40 -162 -38 -182 5 -22 50 38 97 76 59 15 -14 16 -13 16 7 0 12 -7 30
-15 39 -11 13 -13 24 -5 51 22 76 0 93 -47 35 -22 -29 -32 -34 -55 -29 -15 3
-35 2 -45 -1 -15 -6 -14 -9 7 -19 46 -23 35 -97 -14 -97 -51 1 -91 81 -90 179
0 59 3 66 32 92 33 29 65 36 92 20 22 -15 30 -3 18 29 -11 34 -35 50 -72 50
-23 0 -24 3 -19 34 4 28 -2 48 -31 100 -20 35 -36 67 -36 71 0 10 118 -5 200
-26z m-939 -502 c18 -45 37 -65 70 -72 24 -6 27 -9 19 -25 -15 -29 -12 -81 7
-102 24 -27 40 -22 47 17 8 41 38 65 84 65 44 0 78 -22 125 -79 56 -68 61
-120 13 -129 -22 -5 -56 26 -56 50 0 27 -19 22 -37 -10 -11 -19 -33 -34 -65
-46 -26 -9 -48 -21 -48 -26 0 -12 53 -40 77 -40 10 0 24 -14 33 -33 18 -40 43
-42 44 -5 2 40 20 54 53 42 52 -18 33 -95 -40 -162 -60 -56 -162 -42 -179 25
-8 30 -10 32 -33 21 -30 -14 -39 -37 -31 -86 6 -33 4 -39 -23 -54 -17 -9 -40
-37 -53 -64 -13 -26 -29 -50 -35 -52 -15 -4 -54 78 -87 185 -56 179 -40 413
40 587 25 54 27 56 44 41 10 -9 24 -31 31 -48z m1523 3 c41 -96 55 -152 67
-253 16 -153 -4 -290 -65 -432 -43 -100 -58 -106 -89 -32 -9 23 -30 51 -47 62
-27 18 -30 25 -30 76 0 50 -3 57 -25 67 -24 11 -26 10 -31 -18 -9 -43 -37 -63
-88 -63 -65 1 -105 28 -146 96 -35 57 -22 107 27 107 24 0 45 -33 36 -56 -2
-7 0 -15 6 -18 13 -9 41 21 41 45 0 14 7 19 25 19 15 0 40 7 56 16 25 12 28
18 18 30 -6 8 -31 19 -55 25 -31 8 -44 17 -46 31 -2 12 -14 28 -28 37 -23 15
-24 15 -17 -3 11 -27 -18 -66 -48 -66 -51 0 -41 79 19 147 75 86 185 85 202
-2 7 -40 16 -43 45 -14 21 21 23 60 5 99 -5 12 3 19 27 28 23 8 40 25 53 50
32 62 46 83 56 80 5 -2 19 -28 32 -58z m-784 -15 c5 -13 19 -34 30 -45 20 -20
21 -24 7 -58 -13 -34 -18 -37 -53 -37 -36 0 -40 3 -52 38 -11 36 -10 41 13 69
14 16 25 36 25 44 0 23 20 16 30 -11z m-108 -84 c4 -4 10 -21 14 -38 5 -27 2
-32 -24 -46 -29 -14 -32 -13 -51 7 -24 26 -25 35 -9 70 9 21 16 24 37 20 14
-4 29 -10 33 -13z m257 -12 c11 -32 9 -41 -17 -71 -13 -16 -17 -16 -46 -1 -17
8 -32 17 -34 18 -2 2 3 19 12 38 9 23 22 37 38 40 12 2 26 5 30 6 3 0 11 -13
17 -30z m-347 -76 l27 -26 -21 -39 c-12 -21 -25 -38 -28 -38 -23 0 -70 24 -70
36 0 7 -9 28 -20 46 l-20 33 48 6 c26 3 49 7 51 7 3 1 17 -10 33 -25z m497 11
c2 -2 -3 -12 -12 -21 -8 -10 -18 -30 -22 -45 -4 -15 -16 -30 -26 -33 -10 -3
-27 -7 -38 -10 -14 -4 -24 4 -40 31 l-22 37 26 27 c23 24 31 26 78 22 29 -2
54 -6 56 -8z m-276 -88 c40 -16 67 -55 67 -97 0 -43 -56 -99 -99 -99 -118 0
-154 149 -46 196 38 17 39 17 78 0z m-266 -52 c18 -5 22 -13 21 -44 0 -35 -3
-40 -31 -46 -25 -5 -34 -2 -48 17 -23 30 -23 38 -2 61 17 19 26 21 60 12z
m522 -18 c11 -20 10 -28 -4 -50 -17 -26 -38 -32 -69 -20 -23 9 -22 81 2 87 40
11 59 6 71 -17z m-486 -113 c25 -29 31 -67 11 -84 -16 -13 -124 -21 -124 -9 0
26 39 92 60 99 35 13 35 13 53 -6z m444 2 c12 -3 24 -17 28 -33 4 -15 14 -35
22 -44 9 -10 14 -18 12 -19 -2 0 -30 -2 -61 -4 -48 -2 -60 0 -78 20 l-21 22
22 37 c14 24 27 35 38 32 9 -2 26 -7 38 -11z m-354 -97 c45 -22 34 -71 -18
-81 -27 -5 -32 -2 -44 24 -12 26 -11 32 4 50 21 23 23 23 58 7z m261 -9 c18
-27 2 -84 -21 -75 -8 3 -23 6 -33 6 -11 0 -22 11 -28 30 -10 27 -8 31 16 45
37 20 48 19 66 -6z m-111 -56 c8 -25 6 -35 -8 -49 -9 -9 -21 -28 -26 -41 -9
-25 -29 -32 -29 -9 0 7 -9 25 -20 39 -20 26 -25 53 -14 82 5 12 17 15 47 13
37 -3 42 -6 50 -35z m-260 -11 c25 -22 21 -51 -9 -64 -20 -9 -30 -9 -45 0 -10
7 -21 12 -24 12 -12 0 -4 -45 11 -61 12 -13 13 -22 5 -38 -14 -26 -14 -81 0
-81 6 0 25 14 42 32 25 25 41 32 71 33 22 0 41 5 43 13 3 6 -2 12 -11 12 -14
0 -46 36 -46 52 0 16 46 37 68 32 43 -12 89 -127 76 -193 -13 -62 -75 -97
-125 -71 -17 9 -19 7 -19 -17 0 -40 25 -71 63 -78 30 -6 32 -9 33 -48 1 -28
10 -55 27 -81 15 -21 27 -43 27 -48 0 -26 -234 26 -340 75 -132 61 -270 174
-339 277 -36 54 -28 62 47 53 45 -5 58 -3 83 16 l30 22 20 -25 c26 -33 74 -43
98 -21 18 15 17 17 -10 45 -64 63 -17 137 106 166 56 13 91 9 118 -14z m579 2
c54 -17 98 -63 98 -101 0 -14 -12 -37 -29 -53 -28 -28 -28 -30 -10 -46 23 -21
62 -12 95 21 l25 25 29 -21 c23 -17 38 -21 75 -17 26 3 55 4 65 1 17 -5 17 -6
-2 -40 -33 -55 -113 -137 -188 -193 -128 -95 -287 -157 -442 -174 -64 -7 -72
2 -40 45 25 33 42 76 42 103 0 17 7 26 25 30 35 9 65 45 65 80 0 23 -3 27 -12
18 -22 -22 -75 -14 -102 14 -42 46 -44 118 -4 197 23 46 56 64 87 48 30 -17
28 -58 -4 -73 -37 -17 -25 -33 24 -32 22 0 41 -2 41 -6 0 -11 51 -60 62 -60 6
0 8 24 7 53 -2 28 2 62 9 74 18 33 16 57 -5 48 -77 -34 -116 34 -42 72 26 14
56 11 131 -13z"/>
<path d="M545 2940 c-7 -23 10 -50 30 -50 20 0 37 27 30 50 -4 13 -15 20 -30
20 -15 0 -26 -7 -30 -20z"/>
<path d="M2756 2944 c-7 -20 10 -54 28 -54 21 0 38 27 31 50 -8 24 -50 28 -59
4z"/>
<path d="M430 2866 c0 -37 89 -96 145 -96 55 0 145 61 145 97 0 23 -43 14 -73
-14 -22 -22 -38 -28 -72 -28 -34 0 -50 6 -72 28 -31 28 -73 37 -73 13z"/>
<path d="M2650 2850 c47 -67 111 -92 180 -71 39 12 100 65 100 88 0 23 -43 14
-73 -14 -22 -22 -38 -28 -72 -28 -34 0 -50 6 -72 28 -18 16 -40 27 -57 27
l-27 0 21 -30z"/>
<path d="M215 2399 c-4 -6 -4 -30 0 -54 8 -55 77 -135 146 -171 27 -13 50 -24
52 -24 3 0 -17 22 -43 48 -26 27 -66 83 -90 125 -44 82 -55 94 -65 76z"/>
<path d="M3095 2349 c-19 -33 -35 -64 -35 -69 0 -5 -26 -36 -58 -69 -32 -34
-56 -61 -54 -61 1 0 24 11 50 24 57 29 119 88 138 133 16 37 19 103 4 103 -5
0 -25 -27 -45 -61z"/>
<path d="M315 2047 c-13 -10 -16 -21 -11 -40 5 -22 12 -27 36 -27 38 0 55 28
34 58 -17 25 -33 27 -59 9z"/>
<path d="M2998 2049 c-35 -20 -15 -69 29 -69 27 0 42 42 23 65 -14 17 -28 18
-52 4z"/>
<path d="M408 1910 c-50 -43 -102 -119 -112 -162 -7 -33 8 -76 30 -85 22 -8
44 22 44 61 0 43 24 117 52 162 50 79 49 80 -14 24z"/>
<path d="M2950 1863 c23 -48 40 -99 44 -132 6 -63 18 -81 44 -65 54 34 31 121
-55 215 -30 32 -59 59 -63 59 -5 0 9 -35 30 -77z"/>
<path d="M491 1735 c-65 -170 -50 -381 40 -559 62 -122 166 -243 245 -285 46
-25 67 -26 84 -6 16 19 -3 49 -68 108 -226 203 -275 279 -307 475 -8 48 2 142
15 142 5 0 12 -17 15 -37 8 -47 52 -176 76 -225 66 -131 182 -236 203 -183 8
22 -12 55 -95 155 -109 131 -158 245 -177 410 l-8 65 -23 -60z"/>
<path d="M2846 1745 c-33 -205 -85 -317 -221 -475 -57 -67 -70 -111 -33 -118
24 -5 108 77 150 146 39 63 93 204 103 270 7 43 18 54 29 26 20 -51 -4 -206
-45 -299 -31 -70 -95 -148 -204 -251 -129 -120 -143 -138 -124 -160 18 -22 51
-17 101 16 114 76 225 235 279 400 21 66 24 92 23 215 -2 123 -5 148 -27 205
l-25 65 -6 -40z"/>
<path d="M1012 1010 c-29 -4 -55 -10 -58 -13 -3 -2 4 -28 15 -56 82 -217 267
-335 499 -317 94 7 102 -1 50 -51 -38 -35 -79 -58 -125 -68 -18 -3 -33 -10
-33 -15 0 -14 70 -70 97 -76 15 -4 44 -2 65 3 l39 11 51 -72 c27 -39 52 -77
55 -83 3 -7 8 -13 12 -13 3 0 31 36 61 80 l55 80 45 -6 c53 -6 94 7 133 44 35
33 34 39 -5 47 -47 10 -88 33 -125 68 -53 50 -46 58 50 51 215 -17 385 79 477
270 22 45 40 88 40 94 0 18 -47 26 -160 26 -118 -1 -201 -19 -289 -64 -83 -42
-174 -113 -228 -180 -26 -33 -51 -60 -54 -60 -4 0 -15 12 -24 28 -66 101 -240
223 -369 256 -72 19 -206 27 -274 16z m133 -103 c28 -9 85 -21 128 -26 42 -6
105 -22 139 -37 77 -32 194 -111 235 -157 l31 -36 44 43 c106 102 234 167 371
187 45 6 106 20 135 31 29 11 56 17 60 14 11 -12 -91 -105 -150 -136 -32 -17
-101 -42 -154 -55 -85 -21 -166 -54 -216 -90 -16 -11 -16 -13 8 -26 37 -19 74
-66 74 -93 0 -13 -9 -31 -20 -41 -19 -17 -21 -17 -47 0 -16 10 -34 26 -41 34
-12 14 -12 12 -7 -13 3 -16 1 -42 -6 -58 -9 -22 -18 -28 -43 -28 -43 0 -56 16
-56 70 0 44 -1 45 -18 24 -9 -12 -27 -27 -40 -34 -20 -10 -27 -9 -43 6 -10 9
-19 27 -19 39 0 23 73 105 93 105 16 0 -57 49 -101 67 -20 9 -79 26 -130 39
-109 27 -177 62 -249 128 -50 45 -68 74 -40 64 6 -3 35 -12 62 -21z"/>
<path d="M5523 3088 l-103 -20 0 -649 0 -648 38 -11 c80 -23 239 -42 312 -37
192 13 324 130 371 327 18 77 15 260 -5 340 -64 252 -249 354 -478 265 -17 -7
-18 8 -18 224 0 127 -3 231 -7 230 -5 0 -54 -10 -110 -21z m317 -637 c54 -29
83 -94 88 -200 5 -110 -11 -188 -49 -241 -39 -54 -83 -72 -167 -68 l-67 3 -3
248 c-1 136 -1 247 0 247 2 0 21 7 43 15 55 20 114 18 155 -4z"/>
<path d="M7753 3070 c-43 -26 -63 -68 -63 -132 0 -62 25 -110 69 -133 94 -48
191 21 191 135 0 118 -104 187 -197 130z"/>
<path d="M3870 2974 c-25 -2 -75 -9 -112 -15 l-68 -11 0 -604 0 -604 115 0
115 0 0 225 0 226 62 -3 62 -3 49 -80 c26 -44 80 -144 119 -222 l70 -143 129
0 c118 0 128 1 122 18 -20 56 -148 311 -197 391 -31 51 -56 95 -54 96 2 1 14
8 26 14 44 23 103 85 127 132 53 104 53 277 -1 386 -42 88 -142 156 -264 182
-60 13 -228 21 -300 15z m285 -254 c62 -30 90 -88 81 -164 -11 -99 -73 -141
-223 -152 l-93 -7 0 170 c0 93 3 173 8 177 4 5 46 6 94 3 62 -3 100 -11 133
-27z"/>
<path d="M7250 2928 c-25 -5 -69 -14 -97 -19 l-53 -10 0 -409 c0 -237 5 -441
11 -487 19 -138 66 -211 163 -254 67 -30 203 -32 289 -5 65 21 64 17 45 139
-11 77 -12 79 -37 72 -14 -3 -56 -8 -93 -12 -78 -7 -106 6 -135 60 -16 28 -18
60 -18 242 l0 210 133 3 132 3 0 104 0 105 -135 0 -135 0 0 135 c0 102 -3 135
-12 134 -7 -1 -33 -5 -58 -11z"/>
<path d="M4813 2676 c-137 -45 -238 -175 -270 -350 -45 -249 48 -486 225 -573
51 -25 67 -28 157 -28 120 1 172 21 251 100 175 174 180 565 9 754 -19 21 -63
53 -97 71 -55 30 -74 34 -148 37 -52 2 -101 -2 -127 -11z m177 -221 c86 -44
123 -245 74 -395 -25 -78 -75 -120 -140 -120 -56 0 -103 33 -134 95 -23 45
-25 62 -25 175 0 109 3 130 22 165 22 41 57 78 83 88 30 11 92 7 120 -8z"/>
<path d="M6503 2676 c-137 -45 -238 -175 -270 -350 -45 -249 48 -486 225 -573
51 -25 67 -28 157 -28 120 1 172 21 251 100 175 174 180 565 9 754 -19 21 -63
53 -97 71 -55 30 -74 34 -148 37 -52 2 -101 -2 -127 -11z m177 -221 c86 -44
123 -245 74 -395 -25 -78 -75 -120 -140 -120 -56 0 -103 33 -134 95 -23 45
-25 62 -25 175 0 109 3 130 22 165 22 41 57 78 83 88 30 11 92 7 120 -8z"/>
<path d="M8320 2675 c-114 -36 -219 -151 -262 -288 -42 -133 -27 -352 32 -467
83 -163 271 -234 488 -185 99 23 95 16 78 129 -8 54 -16 100 -18 101 -2 2 -28
-3 -58 -11 -140 -36 -244 -7 -289 81 -21 39 -26 67 -29 146 -6 147 33 241 115
275 42 18 137 17 188 -1 21 -8 41 -12 43 -10 3 2 15 47 27 100 26 109 30 101
-64 129 -66 19 -189 20 -251 1z"/>
<path d="M8915 2673 c-119 -43 -178 -128 -178 -261 0 -91 26 -162 76 -210 18
-17 79 -54 137 -82 58 -29 115 -61 128 -73 30 -28 30 -80 0 -101 -36 -25 -161
-21 -253 8 -41 13 -75 23 -75 22 0 0 -9 -47 -19 -104 l-19 -102 72 -23 c93
-29 284 -32 361 -4 109 37 165 114 173 233 10 157 -39 226 -228 321 -127 64
-152 90 -134 140 18 53 120 64 241 28 26 -8 48 -13 50 -12 1 2 11 46 21 99
l18 96 -55 17 c-86 26 -254 30 -316 8z"/>
<path d="M7710 2205 l0 -465 110 0 110 0 0 465 0 465 -110 0 -110 0 0 -465z"/>
<path d="M4782 1589 c-142 -71 -146 -367 -5 -434 48 -23 147 -24 190 -1 30 15
31 17 20 51 -8 27 -15 34 -26 29 -9 -3 -37 -9 -62 -11 -90 -10 -139 42 -139
147 0 121 77 187 173 147 33 -14 36 -14 41 1 2 9 7 27 11 40 5 19 1 25 -29 37
-51 22 -123 19 -174 -6z"/>
<path d="M6213 1603 l-33 -4 0 -224 c0 -255 -8 -235 98 -235 92 0 140 16 183
59 47 47 63 103 57 203 -6 92 -35 146 -99 178 -41 22 -141 33 -206 23z m169
-94 c50 -27 70 -160 34 -227 -20 -38 -67 -62 -121 -62 l-35 0 0 149 c0 110 3
151 13 155 15 6 87 -3 109 -15z"/>
<path d="M4042 1568 c-15 -39 -142 -417 -142 -424 0 -2 19 -4 43 -4 l43 0 13
50 13 50 84 0 83 0 14 -47 c14 -46 15 -48 55 -51 33 -2 42 0 42 13 0 17 -109
346 -134 408 -15 35 -19 37 -59 37 -39 0 -44 -3 -55 -32z m91 -165 l25 -83
-59 0 c-40 0 -59 4 -59 12 0 28 53 169 60 161 5 -4 19 -45 33 -90z"/>
<path d="M5522 1568 c-15 -39 -142 -417 -142 -424 0 -2 19 -4 43 -4 l43 0 13
50 13 50 84 0 83 0 14 -47 c14 -46 15 -48 55 -51 33 -2 42 0 42 13 0 17 -109
346 -134 408 -15 35 -19 37 -59 37 -39 0 -44 -3 -55 -32z m91 -165 l25 -83
-59 0 c-40 0 -59 4 -59 12 0 28 53 169 60 161 5 -4 19 -45 33 -90z"/>
<path d="M6950 1370 l0 -230 140 0 140 0 0 40 0 39 -97 3 -98 3 -3 58 -3 57
81 0 80 0 0 40 0 39 -77 3 -78 3 -3 48 -3 47 90 0 91 0 0 40 0 40 -130 0 -130
0 0 -230z"/>
<path d="M7665 1558 c-7 -55 -25 -320 -25 -375 l0 -43 40 0 40 0 1 88 c2 117
13 231 22 212 4 -8 22 -58 41 -110 19 -52 37 -103 41 -112 4 -11 18 -18 35
-18 26 0 30 6 70 118 23 64 46 121 51 126 5 6 9 -10 9 -40 0 -28 3 -99 7 -157
l6 -107 39 0 c30 0 38 4 38 18 0 39 -20 341 -26 390 l-6 53 -41 -3 -40 -3 -51
-132 c-28 -73 -53 -133 -56 -133 -3 0 -20 40 -37 89 -66 179 -67 181 -112 181
-39 0 -40 -1 -46 -42z"/>
<path d="M8486 1543 c14 -32 45 -96 70 -142 43 -81 44 -86 44 -172 l0 -89 40
0 40 0 0 85 0 85 70 140 c39 77 70 142 70 145 0 3 -19 5 -43 5 l-43 0 -43 -95
c-24 -52 -47 -93 -51 -90 -4 3 -25 45 -46 95 l-38 90 -48 0 -48 0 26 -57z"/>
</g>
</svg>
